<?xml version="1.0" encoding="UTF-8" standalone="no"?>
<!-- Created with Inkscape (http://www.inkscape.org/) -->

<svg
        xmlns:dc="http://purl.org/dc/elements/1.1/"
        xmlns:cc="http://creativecommons.org/ns#"
        xmlns:rdf="http://www.w3.org/1999/02/22-rdf-syntax-ns#"
        xmlns:svg="http://www.w3.org/2000/svg"
        xmlns="http://www.w3.org/2000/svg"
        xmlns:sodipodi="http://sodipodi.sourceforge.net/DTD/sodipodi-0.dtd"
        xmlns:inkscape="http://www.inkscape.org/namespaces/inkscape"
        width="46.229172mm"
        height="42.759136mm"
        viewBox="0 0 46.229172 42.759136"
        version="1.1"
        id="svg15833"
        inkscape:version="0.92.4 (5da689c313, 2019-01-14)"
        sodipodi:docname="pc_people.svg">
    <defs
            id="defs15827"/>
    <sodipodi:namedview
            id="base"
            pagecolor="#ffffff"
            bordercolor="#666666"
            borderopacity="1.0"
            inkscape:pageopacity="0.0"
            inkscape:pageshadow="2"
            inkscape:zoom="0.35"
            inkscape:cx="-305.49495"
            inkscape:cy="-87.766765"
            inkscape:document-units="mm"
            inkscape:current-layer="layer1"
            showgrid="false"
            fit-margin-top="0"
            fit-margin-left="0"
            fit-margin-right="0"
            fit-margin-bottom="0"
            inkscape:window-width="1366"
            inkscape:window-height="705"
            inkscape:window-x="-8"
            inkscape:window-y="-8"
            inkscape:window-maximized="1"/>
    <metadata
            id="metadata15830">
        <rdf:RDF>
            <cc:Work
                    rdf:about="">
                <dc:format>image/svg+xml</dc:format>
                <dc:type
                        rdf:resource="http://purl.org/dc/dcmitype/StillImage"/>
                <dc:title></dc:title>
            </cc:Work>
        </rdf:RDF>
    </metadata>
    <g
            inkscape:label="Camada 1"
            inkscape:groupmode="layer"
            id="layer1"
            transform="translate(-47.18899,-82.852575)">
        <g
                transform="translate(299.10164,41.079408)"
                id="g15802">
            <path
                    id="path5817"
                    d="m -209.85533,47.938488 h -33.82119 v -1.994006 h 33.82119 z m 0,23.127616 h -17.67747 v -2.400547 c 0,-1.481384 -0.9164,-2.895247 -2.22967,-3.435455 -0.004,0 -0.01,-0.0035 -0.0138,-0.0056 -0.0289,-0.01094 -0.12678,-0.04823 -0.27147,-0.10474 1.00596,-1.344965 0.67524,-3.509856 -0.44373,-4.087248 -0.23702,-0.121249 -0.39825,-0.234279 -0.50161,-0.351401 v -3.961871 c 0,-3.208055 -2.61138,-5.811167 -5.84977,-5.772573 -3.14055,0.03993 -5.69681,2.663719 -5.69681,5.849761 v 3.881931 c -0.10611,0.119874 -0.26734,0.232904 -0.50436,0.354153 -1.12448,0.580144 -1.44694,2.749198 -0.44373,4.087248 -0.16399,0.06477 -0.2632,0.101988 -0.27009,0.106116 -0.004,0 -0.008,0.0035 -0.0124,0.0042 -1.07349,0.442348 -2.23104,1.706034 -2.23104,3.435456 v 2.400547 h -1.74047 V 49.293084 h 37.88641 z m -25.19329,-6.436818 c -1.04593,0.866775 -2.53697,0.73727 -3.44097,-0.0056 0.39137,-0.210855 0.54709,-0.525039 0.54709,-0.952217 0.73725,0.221862 1.57785,0.245286 2.35093,0.0095 0,0.456141 0.20946,0.774453 0.54295,0.94809 m -1.87552,-2.141467 c -1.45796,-0.0937 -2.45842,-1.240226 -2.45842,-2.563142 v -1.688112 c 1.08177,0 1.91823,-0.118498 2.6169,-0.884697 0.7152,0.782744 1.56132,0.884697 2.61552,0.884697 v 1.656397 c 0,1.431784 -1.19476,2.695469 -2.774,2.594857 m 5.81119,-0.25079 c 0.31557,0.162595 0.60496,1.69358 -0.30041,2.353663 -1.0542,-0.407882 -2.31648,-0.897079 -2.82498,-1.092764 v -0.545712 c 0.93569,-0.774453 1.44281,-1.909975 1.44281,-3.059254 v -1.96095 c 0,-0.578768 -0.47129,-1.050043 -1.05145,-1.050043 -0.70417,0 -0.45475,0.0095 -1.14514,-0.0496 -0.49472,-0.04135 -0.9412,-0.432717 -1.06247,-0.930204 -0.0799,-0.33073 -0.37207,-0.560847 -0.71245,-0.560847 -0.33762,0 -0.62976,0.228742 -0.71107,0.560847 -0.11437,0.468559 -0.52916,0.884696 -1.08589,0.934331 -0.68488,0.05786 -0.59945,0.04547 -1.12172,0.04547 -0.58016,0 -1.05145,0.471275 -1.05145,1.050043 v 1.992665 c 0,1.197504 0.54846,2.310976 1.44005,3.034418 v 0.537457 c -0.44648,0.172261 -2.12493,0.822677 -2.82359,1.09414 -0.90676,-0.658671 -0.61875,-2.191068 -0.3018,-2.353663 0.65319,-0.336268 1.23748,-0.813047 1.23748,-1.540651 V 56.79492 c 0,-2.447396 1.95544,-4.463486 4.36011,-4.493789 2.46118,-0.03316 4.47863,1.948533 4.47863,4.417977 v 3.978416 c 0,0.72898 0.5774,1.200256 1.23334,1.539275 m 2.22691,8.829075 h -1.75562 V 68.64603 c 0,-0.37345 -0.30179,-0.676592 -0.67661,-0.676592 -0.37345,0 -0.67662,0.303142 -0.67662,0.676592 v 2.419844 h -9.54292 V 68.64603 c 0,-0.37345 -0.30317,-0.676592 -0.67661,-0.676592 -0.37483,0 -0.678,0.303142 -0.678,0.676592 v 2.419844 h -1.75424 V 68.66531 c 0,-1.176831 0.82683,-1.947156 1.38631,-2.18006 0.0275,-0.01094 3.38583,-1.313251 3.40237,-1.318754 1.52825,1.824496 4.53513,1.959539 6.1805,0 1.79972,0.697265 2.84703,1.10243 3.40513,1.318754 0.68903,0.286632 1.38631,1.125855 1.38631,2.18006 z m -18.85569,-25.121639 h 2.7106 v 1.994006 h -2.7106 z m -0.30317,-1.354632 c -0.58015,0 -1.05144,0.471312 -1.05144,1.051455 v 25.727977 c 0,0.580143 0.47129,1.051454 1.05144,1.051454 h 38.49274 c 0.57877,0 1.05006,-0.471311 1.05006,-1.051454 V 45.641058 c 0,-0.580143 -0.47129,-1.051455 -1.05006,-1.051455 z m 0,0"
                    style="fill:#ffffff;fill-opacity:1;fill-rule:nonzero;stroke:none;stroke-width:0.35277778"
                    inkscape:connector-curvature="0"/>
            <path
                    id="path5819"
                    d="m -225.412,53.514034 h 0.92053 c 0.37482,0 0.67661,-0.303177 0.67661,-0.676627 0,-0.374827 -0.30179,-0.676593 -0.67661,-0.676593 h -0.92053 c -0.37345,0 -0.67662,0.301766 -0.67662,0.676593 0,0.37345 0.30317,0.676627 0.67662,0.676627"
                    style="fill:#ffffff;fill-opacity:1;fill-rule:nonzero;stroke:none;stroke-width:0.35277778"
                    inkscape:connector-curvature="0"/>
            <path
                    id="path5821"
                    d="m -225.412,56.333505 h 0.92053 c 0.37482,0 0.67661,-0.303177 0.67661,-0.678004 0,-0.37345 -0.30179,-0.676628 -0.67661,-0.676628 h -0.92053 c -0.37345,0 -0.67662,0.303178 -0.67662,0.676628 0,0.374827 0.30317,0.678004 0.67662,0.678004"
                    style="fill:#ffffff;fill-opacity:1;fill-rule:nonzero;stroke:none;stroke-width:0.35277778"
                    inkscape:connector-curvature="0"/>
            <path
                    id="path5823"
                    d="m -225.412,59.152975 h 0.92053 c 0.37482,0 0.67661,-0.304553 0.67661,-0.678003 0,-0.374827 -0.30179,-0.676628 -0.67661,-0.676628 h -0.92053 c -0.37345,0 -0.67662,0.301801 -0.67662,0.676628 0,0.37345 0.30317,0.678003 0.67662,0.678003"
                    style="fill:#ffffff;fill-opacity:1;fill-rule:nonzero;stroke:none;stroke-width:0.35277778"
                    inkscape:connector-curvature="0"/>
            <path
                    id="path5825"
                    d="m -225.412,61.97107 h 0.92053 c 0.37482,0 0.67661,-0.303177 0.67661,-0.676628 0,-0.374826 -0.30179,-0.676628 -0.67661,-0.676628 h -0.92053 c -0.37345,0 -0.67662,0.301802 -0.67662,0.676628 0,0.373451 0.30317,0.676628 0.67662,0.676628"
                    style="fill:#ffffff;fill-opacity:1;fill-rule:nonzero;stroke:none;stroke-width:0.35277778"
                    inkscape:connector-curvature="0"/>
            <path
                    id="path5827"
                    d="m -225.412,64.756074 h 0.92053 c 0.37482,0 0.67661,-0.303177 0.67661,-0.678003 0,-0.373451 -0.30179,-0.676628 -0.67661,-0.676628 h -0.92053 c -0.37345,0 -0.67662,0.303177 -0.67662,0.676628 0,0.374826 0.30317,0.678003 0.67662,0.678003"
                    style="fill:#ffffff;fill-opacity:1;fill-rule:nonzero;stroke:none;stroke-width:0.35277778"
                    inkscape:connector-curvature="0"/>
            <path
                    id="path5829"
                    d="m -225.412,67.574169 h 0.92053 c 0.37482,0 0.67661,-0.301802 0.67661,-0.676628 0,-0.373451 -0.30179,-0.676628 -0.67661,-0.676628 h -0.92053 c -0.37345,0 -0.67662,0.303177 -0.67662,0.676628 0,0.374826 0.30317,0.676628 0.67662,0.676628"
                    style="fill:#ffffff;fill-opacity:1;fill-rule:nonzero;stroke:none;stroke-width:0.35277778"
                    inkscape:connector-curvature="0"/>
            <path
                    id="path5831"
                    d="m -221.92006,53.514034 h 8.50388 c 0.37482,0 0.67799,-0.303177 0.67799,-0.676627 0,-0.374827 -0.30317,-0.676593 -0.67799,-0.676593 h -8.50388 c -0.37482,0 -0.67799,0.301766 -0.67799,0.676593 0,0.37345 0.30317,0.676627 0.67799,0.676627"
                    style="fill:#ffffff;fill-opacity:1;fill-rule:nonzero;stroke:none;stroke-width:0.35277778"
                    inkscape:connector-curvature="0"/>
            <path
                    id="path5833"
                    d="m -221.92006,56.333505 h 8.50388 c 0.37482,0 0.67799,-0.303177 0.67799,-0.678004 0,-0.37345 -0.30317,-0.676628 -0.67799,-0.676628 h -8.50388 c -0.37482,0 -0.67799,0.303178 -0.67799,0.676628 0,0.374827 0.30317,0.678004 0.67799,0.678004"
                    style="fill:#ffffff;fill-opacity:1;fill-rule:nonzero;stroke:none;stroke-width:0.35277778"
                    inkscape:connector-curvature="0"/>
            <path
                    id="path5835"
                    d="m -221.92006,59.152975 h 8.50388 c 0.37482,0 0.67799,-0.304553 0.67799,-0.678003 0,-0.374827 -0.30317,-0.676628 -0.67799,-0.676628 h -8.50388 c -0.37482,0 -0.67799,0.301801 -0.67799,0.676628 0,0.37345 0.30317,0.678003 0.67799,0.678003"
                    style="fill:#ffffff;fill-opacity:1;fill-rule:nonzero;stroke:none;stroke-width:0.35277778"
                    inkscape:connector-curvature="0"/>
            <path
                    id="path5837"
                    d="m -221.92006,61.97107 h 8.50388 c 0.37482,0 0.67799,-0.303177 0.67799,-0.676628 0,-0.374826 -0.30317,-0.676628 -0.67799,-0.676628 h -8.50388 c -0.37482,0 -0.67799,0.301802 -0.67799,0.676628 0,0.373451 0.30317,0.676628 0.67799,0.676628"
                    style="fill:#ffffff;fill-opacity:1;fill-rule:nonzero;stroke:none;stroke-width:0.35277778"
                    inkscape:connector-curvature="0"/>
            <path
                    id="path5839"
                    d="m -221.92006,64.756074 h 8.50388 c 0.37482,0 0.67799,-0.303177 0.67799,-0.678003 0,-0.373451 -0.30317,-0.676628 -0.67799,-0.676628 h -8.50388 c -0.37482,0 -0.67799,0.303177 -0.67799,0.676628 0,0.374826 0.30317,0.678003 0.67799,0.678003"
                    style="fill:#ffffff;fill-opacity:1;fill-rule:nonzero;stroke:none;stroke-width:0.35277778"
                    inkscape:connector-curvature="0"/>
            <path
                    id="path5841"
                    d="m -221.92006,67.574169 h 8.50388 c 0.37482,0 0.67799,-0.301802 0.67799,-0.676628 0,-0.373451 -0.30317,-0.676628 -0.67799,-0.676628 h -8.50388 c -0.37482,0 -0.67799,0.303177 -0.67799,0.676628 0,0.374826 0.30317,0.676628 0.67799,0.676628"
                    style="fill:#ffffff;fill-opacity:1;fill-rule:nonzero;stroke:none;stroke-width:0.35277778"
                    inkscape:connector-curvature="0"/>
            <path
                    id="path5843"
                    d="m -232.32424,77.203873 v -1.966454 h 7.05004 v 1.966454 c 0,1.291237 0.61323,2.470855 1.63987,3.155738 l 0.003,0.0035 h -10.33529 l 0.003,-0.0035 c 1.02664,-0.684883 1.63987,-1.864501 1.63987,-3.155738 m 25.96228,-18.512543 c 0.37345,0 0.67799,-0.303177 0.67799,-0.676627 V 45.052871 c 0,-1.809362 -1.47174,-3.279704 -3.27972,-3.279704 h -39.6711 c -1.80799,0 -3.27835,1.470342 -3.27835,3.279704 v 26.90622 c 0,1.807986 1.47036,3.278328 3.27835,3.278328 h 14.95584 v 1.966454 c 0,0.825465 -0.39687,1.602669 -1.03628,2.028472 l -1.69223,1.130018 h -1.34634 c -0.87092,0 -1.57923,0.708307 -1.57923,1.57921 v 1.011484 c 0,0.870938 0.70831,1.579245 1.57923,1.579245 h 7.37526 c 0.37345,0 0.67661,-0.301801 0.67661,-0.676628 0,-0.37345 -0.30316,-0.676628 -0.67661,-0.676628 h -7.37526 c -0.12403,0 -0.22462,-0.101952 -0.22462,-0.225989 v -1.011484 c 0,-0.124002 0.10059,-0.22599 0.22462,-0.22599 h 17.90898 c 0.12402,0 0.226,0.101988 0.226,0.22599 v 1.011484 c 0,0.124037 -0.10198,0.225989 -0.226,0.225989 h -7.37388 c -0.37483,0 -0.678,0.303178 -0.678,0.676628 0,0.374827 0.30317,0.676628 0.678,0.676628 h 7.37388 c 0.87092,0 1.57923,-0.708307 1.57923,-1.579245 v -1.011484 c 0,-0.870903 -0.70831,-1.57921 -1.57923,-1.57921 h -1.34634 l -1.69223,-1.130018 c -0.63941,-0.425803 -1.03629,-1.203007 -1.03629,-2.028472 v -1.966454 h 14.95585 c 1.80799,0 3.27973,-1.470342 3.27973,-3.278328 V 61.174533 c 0,-0.373415 -0.30455,-0.676592 -0.67799,-0.676592 -0.37345,0 -0.67662,0.303177 -0.67662,0.676592 v 10.784558 c 0,1.061085 -0.86403,1.925108 -1.92512,1.925108 h -39.67096 c -1.06109,0 -1.92512,-0.864023 -1.92512,-1.925108 v -26.90622 c 0,-1.061085 0.86403,-1.926484 1.92512,-1.926484 h 39.67096 c 1.06109,0 1.92512,0.865399 1.92512,1.926484 v 12.961832 c 0,0.37345 0.30317,0.676627 0.67662,0.676627"
                    style="fill:#ffffff;fill-opacity:1;fill-rule:nonzero;stroke:none;stroke-width:0.35277778"
                    inkscape:connector-curvature="0"/>
        </g>
    </g>
</svg>
